<svg width="452" height="462" viewBox="0 0 452 462" fill="none" xmlns="http://www.w3.org/2000/svg">
<g clip-path="url(#clip0_32_55603)">
<path fill-rule="evenodd" clip-rule="evenodd" d="M250.838 81.8426C262.843 67.3456 262.578 67.1556 274.79 52.8106C279.524 47.2506 279.005 46.1526 286.063 44.2816C296.036 41.6386 295.988 41.6296 305.95 38.8836C330.591 32.0906 420.969 7.69862 424.895 6.65662C449.582 0.0976195 450.957 -1.18738 451.061 0.952625C451.086 1.46962 450.808 1.36363 443.155 17.0376C408.981 86.9536 374.808 156.87 340.634 226.787C337.845 232.472 309.436 290.37 305.844 297.891C304.579 300.538 292.505 325.819 289.915 330.922C288.977 332.772 282.562 345.414 278.367 354.14C271.399 368.634 271.27 368.552 270.718 369.835C268.224 375.64 260.906 389.839 258.34 395.13C257.06 397.771 242.698 427.391 242.323 428.134C235.066 442.479 235.342 442.59 234.686 443.822C226.552 459.076 227.463 459.505 226.648 460.764C224.724 463.738 224.62 460.194 219.47 450.226C216.281 444.053 216.488 443.987 213.372 437.759C212.55 436.117 181.38 372.732 174.757 359.058C167.041 343.13 167.069 343.137 166.389 341.757C143.294 294.866 143.343 294.846 141.312 290.781C135.217 278.58 135.549 278.457 129.496 266.203C78.4627 162.898 79.0027 162.648 74.4277 153.735C70.7458 146.563 71.1167 146.416 67.4737 139.205C64.6017 133.52 56.5787 117.638 32.3137 67.7776C13.9537 30.0516 13.8557 30.1026 12.2977 26.8046C1.40875 3.74963 1.18675 3.86162 0.25075 1.85262C-0.97025 -0.770381 2.65274 0.254628 2.88774 0.321628C21.6517 5.63263 156.225 41.4486 169.103 45.5586C171.004 46.1656 171.098 46.2696 185.761 64.1206C202.36 84.3306 202.243 84.4116 203.703 86.1536C209.059 92.5406 214.848 99.9856 215.792 101.099C222.648 109.18 223.838 112.408 225.941 111.891C226.377 111.784 226.41 111.776 229.722 107.75C231.421 105.685 245.48 88.5986 250.838 81.8426Z" fill="#220278"/>
<path fill-rule="evenodd" clip-rule="evenodd" d="M32.0048 30.9336C31.7768 30.5286 29.6727 26.7826 29.2037 25.8426C29.1287 25.6926 28.3318 24.0986 29.9618 23.8896C30.0808 23.8746 70.4908 34.8376 74.0138 35.7936C93.9888 41.2156 113.965 46.6366 133.941 52.0576C149.719 56.3176 149.741 56.1646 151.095 56.5916C159.318 59.1836 161.319 58.1376 162.193 61.8996C162.253 62.1576 174.67 137.416 175.754 143.983C176.809 150.381 187.133 212.949 188.882 223.963C193.137 250.748 193.434 250.655 193.727 252.991C194.352 257.98 197.863 278.68 198.241 280.91C199.028 285.552 206.177 327.711 207.818 338.971C211.216 362.281 212.018 364.006 213.776 375.977C216.57 395.011 217.61 400.797 217.997 402.947C219.502 411.319 219.975 411.216 219.985 411.954C219.999 412.915 218.739 413.868 217.965 411.954C217.443 410.661 213.774 401.575 210.823 396.045C207.227 389.308 197.99 370.248 196.897 367.994C186.481 346.505 186.329 346.601 185.445 344.724C184.439 342.588 176.786 326.337 172.546 318.182C167.885 309.218 168.262 309.06 163.674 300.089C163.168 299.1 159.586 292.096 157.465 287.672C144.845 261.353 144.565 261.527 141.554 255.169C127.409 225.301 108.662 187.959 104.3 178.78C99.1028 167.844 98.8507 167.999 93.6007 157.116C85.0147 139.317 85.2438 139.247 84.4508 137.725C76.4498 122.377 76.8627 122.188 76.1657 120.856C63.7497 97.1366 64.4188 96.8056 63.2208 94.8116C61.3308 91.6656 33.5898 34.1256 32.0048 30.9336Z" fill="#9873FC"/>
<path fill-rule="evenodd" clip-rule="evenodd" d="M406.245 57.0526C398.571 72.8706 396.864 75.2696 389.781 90.8696C389.582 91.3096 380.562 109.237 379.759 110.833C369.995 130.24 370.438 130.416 360.624 149.784C359.782 151.445 360.103 151.592 350.59 170.776C347.73 176.544 319.199 234.079 315.138 243.028C313.035 247.664 236.368 403.27 235.238 406.078C234.69 407.441 232.792 412.773 232.765 412.795C232.617 412.923 231.221 412.965 231.122 412.861C230.688 412.407 233.27 403.312 235.219 388.998C235.797 384.756 235.747 384.764 247.677 311.912C257.777 250.236 257.663 250.231 258.765 244.91C260.249 237.746 272.103 160.777 276.053 140.967C276.854 136.949 280.512 113.341 280.885 110.936C281.505 106.935 287.999 65.0256 289.127 61.0006C289.83 58.4896 290.77 59.4236 294.993 58.0436C299.593 56.5396 402.28 29.1136 419.043 24.3146C424.411 22.7776 420.514 27.8166 420.342 28.1786C410.788 48.2796 409.372 49.5596 406.245 57.0526Z" fill="#9873FC"/>
<path fill-rule="evenodd" clip-rule="evenodd" d="M234.891 209.877C233.435 209.748 233.413 209.824 233.321 209.738C232.796 209.25 233.171 203.511 233.207 202.971C233.568 197.443 233.299 197.466 233.305 191.955C233.371 134.911 233.048 134.94 233.32 129.99C233.366 129.139 233.486 126.954 239.023 120.992C243.954 115.682 261.907 92.4286 266.869 86.8536C273.396 79.5216 273.671 76.3316 275.23 77.5586C276.442 78.5116 274.894 81.4956 274.766 81.8856C274.286 83.3486 262.186 145.088 260.678 152.908C256.919 172.405 256.27 172.253 255.99 173.956C254.711 181.73 252.412 181.587 249.929 185.932C244.548 195.351 236.626 204.937 234.891 209.877Z" fill="#5F40B5"/>
<path fill-rule="evenodd" clip-rule="evenodd" d="M202.909 109.994C211.055 120.123 211.198 119.977 212.92 121.983C218.573 128.565 217.588 129.261 217.59 137.958C217.599 188.003 217.418 187.972 217.804 207.924C217.836 209.569 216.361 210.085 215.824 209.086C215.571 208.614 215.437 208.701 212.51 203.273C212.502 203.256 207.28 195.973 205.351 192.664C204.437 191.097 204.424 191.155 203.278 189.699C201.574 187.533 202.188 187.136 200.165 184.802C199.383 183.899 195.349 178.261 194.905 174.961C194.449 171.572 193.966 171.709 186.493 133.053C184.168 121.022 183.872 121.113 181.612 109.044C180.759 104.486 180.512 104.553 180.112 99.9306C180.006 98.7116 179.335 98.8486 177.2 84.9216C177.137 84.5136 177.107 84.3186 175.798 79.9616C175.321 78.3766 175.351 77.7136 176.989 77.9016C177.389 77.9476 177.189 78.1776 180.153 81.8266C185.771 88.7426 185.599 88.8436 191.241 95.7126C200.616 107.128 200.618 107.079 202.909 109.994Z" fill="#5F40B5"/>
</g>
<defs>
<clipPath id="clip0_32_55603">
<rect width="452" height="462" fill="white"/>
</clipPath>
</defs>
</svg>
